<?xml version='1.0' encoding='ASCII' standalone='yes'?>
<svg xmlns="http://www.w3.org/2000/svg" width="864" height="864" viewBox="0 0 864 864" fill="none">
<rect width="863.39" height="863.4" fill="#FFE070"/>
<path d="M315.314 207H542.049C583.136 207 617.364 238.494 620.776 279.439L654.61 685.44C658.448 731.498 622.101 771 575.882 771H286.11C240.247 771 204.023 732.077 207.314 686.332L236.517 280.332C239.49 239.008 273.882 207 315.314 207Z" fill="#FCDDBE" stroke="#452931" stroke-width="6"/>
<path d="M227.299 499.189C229.484 498.684 231.399 499.754 233.35 500.323C237.89 501.656 242.346 503.231 246.849 504.684C249.884 505.606 252.918 506.527 255.845 507.541C256.36 507.8 256.753 508.248 256.94 508.792C257.136 509.366 257.151 509.986 256.986 510.569C256.172 513.307 256.755 516.089 256.615 518.85C256.53 520.621 256.334 522.374 256.188 524.146C256.043 525.918 255.902 527.47 255.774 529.152C255.782 529.451 255.789 529.751 255.797 530.05C255.69 534.508 255.663 538.965 255.466 543.425C255.29 547.546 254.924 551.671 254.648 555.794C254.65 555.894 254.653 555.993 254.656 556.093C254.551 560.252 254.517 564.409 254.322 568.569C254.127 572.73 253.79 576.825 253.514 580.948C253.519 581.147 253.524 581.347 253.529 581.547C253.417 585.805 253.386 590.072 253.193 594.323C253.012 598.253 252.651 602.179 252.37 606.102C252.372 606.202 252.375 606.302 252.377 606.401C252.273 610.56 252.188 614.718 252.053 618.867C251.971 621.137 251.758 623.39 251.645 625.651C251.532 627.912 252.072 630.215 251.236 632.445C251.223 632.541 251.226 632.639 251.243 632.734C251.136 636.793 251.1 640.86 250.902 644.911C250.716 648.642 250.36 652.367 250.084 656.091C250.091 656.39 250.099 656.69 250.107 656.989C250.01 661.847 249.994 666.712 249.796 671.562C249.641 675.293 249.234 679.019 248.978 682.742C248.903 683.743 249.029 684.739 248.984 685.739C248.906 687.01 248.627 688.276 248.62 689.545C248.657 691.012 248.795 692.487 248.923 693.952C249.036 694.327 249.126 694.709 249.193 695.094C249.083 699.823 250.75 704.186 252.076 708.587C252.88 710.916 253.922 713.156 255.188 715.271C257.359 719.386 260.105 723.174 263.343 726.522C268.697 732.042 274.916 736.661 281.757 740.197C287.887 743.339 294.3 745.901 300.911 747.85C305.32 749.229 309.825 750.286 314.39 751.012C314.813 751.061 315.194 751.471 315.469 751.634L305.492 755.885C304.799 755.878 304.108 755.943 303.429 756.077C303.111 756.175 302.923 756.7 302.671 757.036L300.821 757.293L296.544 757.242C296.141 757.036 295.707 756.895 295.259 756.825C284.247 757.107 273.234 757.388 262.222 757.669C260.441 757.515 258.653 757.441 256.891 757.206C247.383 755.935 238.465 751.899 231.254 745.603L231.724 744.772L229.448 744.07C229.186 743.238 229.179 742.169 228.633 741.624C226.807 739.715 225.34 737.495 224.301 735.071C222.335 730.805 219.793 726.754 218.235 722.349C216.213 716.666 214.04 710.937 213.882 704.757C213.878 704.618 213.634 704.484 213.5 704.358L213.229 704.364C213.572 699.434 213.911 694.497 214.246 689.553C214.689 683.042 215.131 676.524 215.573 669.999C215.86 665.756 216.15 661.509 216.442 657.259L217.749 637.695C218.185 631.177 218.621 624.659 219.056 618.141C219.492 611.623 219.935 605.105 220.384 598.587C220.667 594.344 220.919 590.092 221.253 585.848C221.641 581.022 222.13 576.205 222.509 571.38C222.73 568.617 222.789 565.838 222.979 563.066C223.23 559.513 223.551 555.969 223.801 552.416C223.994 549.753 224.116 547.073 224.269 544.412C224.574 539.069 224.829 533.718 225.195 528.404C225.549 523.4 226.084 518.391 226.426 513.327C226.674 509.665 226.72 505.987 226.918 502.326C226.988 501.274 227.115 500.227 227.299 499.189V499.189Z" fill="#D88D7B"/>
<path d="M186.614 535.216C194.422 529.61 207.348 526.136 215.906 526.725C216.11 528.588 216.135 530.469 215.979 532.337C215.721 536.38 215.363 540.414 215.015 544.448C214.727 547.684 214.36 551.007 214.143 554.295C213.908 557.067 213.764 559.838 213.59 562.609C213.223 568.248 212.916 573.908 212.489 579.548C212.062 585.188 211.511 590.582 211.073 596.103C210.825 599.339 210.725 602.496 210.497 605.699C210.209 609.732 209.841 613.777 209.533 617.81C209.328 620.474 209.152 623.137 208.986 625.8C208.765 629.531 208.583 633.271 208.351 637.013C208.292 637.322 208.191 637.621 208.053 637.9C207.817 638.248 207.441 638.565 207.357 638.986C207.184 640.442 206.925 641.885 206.583 643.306C206.111 644.701 205.859 646.127 205.487 647.511C204.895 649.673 204.696 652.089 203.513 653.451L200.418 653.846C195.998 653.032 191.747 651.376 187.864 648.956C185.476 647.565 183.253 645.783 180.962 644.208C180.959 643.992 181.036 643.743 180.954 643.561C179.176 639.075 177.851 634.397 177.003 629.607C176.062 624.507 175.468 619.341 175.223 614.149C174.834 606.889 175.111 599.607 176.052 592.408C176.612 588.544 176.611 584.569 177.241 580.715C178.373 573.859 179.664 567.023 181.126 560.195C182.679 552.346 184.693 544.612 187.157 537.041C187.338 536.349 187.619 535.591 186.614 535.216Z" fill="#D78D7B"/>
<path d="M207.176 663.558C196.935 662.89 186.928 660.194 177.737 655.627C168.546 651.06 160.354 644.714 153.635 636.955C146.917 629.197 141.806 620.181 138.6 610.431C135.395 600.682 134.157 590.393 134.96 580.161C135.762 569.929 138.589 559.959 143.276 550.829C147.963 541.698 154.417 533.59 162.264 526.974C170.11 520.358 179.192 515.366 188.982 512.289C198.773 509.211 209.078 508.109 219.298 509.046L217.255 531.329C209.986 530.663 202.656 531.447 195.692 533.636C188.729 535.825 182.269 539.375 176.688 544.081C171.107 548.786 166.517 554.554 163.183 561.048C159.849 567.542 157.839 574.634 157.268 581.911C156.697 589.189 157.577 596.507 159.857 603.442C162.138 610.376 165.773 616.789 170.551 622.307C175.33 627.825 181.157 632.34 187.694 635.588C194.231 638.836 201.349 640.754 208.633 641.229L207.176 663.558Z" fill="#452931"/>
<path d="M188.264 536C189.33 536.338 189 536.996 188.733 537.616C186.002 544.191 183.748 550.912 181.985 557.74C180.332 563.63 178.861 569.577 177.56 575.59C176.835 578.943 176.782 582.41 176.132 585.774C175.03 592.04 174.633 598.387 174.948 604.723C175.137 609.253 175.7 613.765 176.633 618.223C177.471 622.409 178.818 626.504 180.652 630.436C180.727 630.596 180.652 630.812 180.652 631C176.724 628.577 173.23 625.647 170.289 622.31C163.553 615.242 159.045 606.737 157.218 597.649C153.167 577.497 159.233 559.844 175.193 544.953C178.983 541.376 183.395 538.353 188.264 536V536Z" fill="#FBDDBF"/>
<path d="M329.253 304.289C326.653 305.409 324.473 304.389 322.253 302.999C318.453 300.569 314.863 297.929 312.253 294.149C311.531 293.077 310.863 291.969 310.253 290.829C309.61 289.717 309.204 288.484 309.059 287.207C308.915 285.93 309.035 284.637 309.413 283.409C315.063 263.009 328.073 249.839 348.263 243.729C358.906 240.649 370.013 239.491 381.063 240.309C388.64 240.722 396.169 241.762 403.573 243.419C404.923 243.744 406.337 243.682 407.653 243.239C417.023 240.239 426.453 237.459 435.823 234.469C437.527 233.912 439.355 233.85 441.093 234.289C449.673 236.399 454.773 242.099 457.153 250.339C459.389 258.051 459.116 266.273 456.373 273.819C454.806 277.928 452.463 281.696 449.473 284.919L447.323 287.389C445.443 288.839 443.583 290.329 441.673 291.749C434.553 297.039 426.483 300.259 417.953 302.339C413.06 303.625 408.011 304.217 402.953 304.099C400.289 303.949 397.648 303.52 395.073 302.819C393.39 302.232 391.775 301.468 390.253 300.539C385.001 297.954 379.308 296.386 373.473 295.919C366.436 295.244 359.335 295.768 352.473 297.469C345.943 299.079 339.473 300.909 333.003 302.709C331.722 303.158 330.469 303.686 329.253 304.289V304.289ZM324.453 286.289C325.013 286.969 325.573 287.639 326.153 288.289C326.487 288.793 327.008 289.144 327.601 289.264C328.193 289.384 328.809 289.263 329.313 288.929C329.673 288.779 330.049 288.672 330.433 288.609C331.018 288.575 331.6 288.495 332.173 288.369C335.453 287.459 338.693 286.369 342.013 285.619C345.703 284.759 349.273 283.409 353.123 283.169C355.053 283.049 356.933 282.319 358.863 282.089C360.793 281.859 363.023 282.299 365.013 281.469C367.603 282.529 370.313 281.939 372.963 282.009C376.813 282.099 380.623 282.319 384.223 283.839C384.653 284.074 385.109 284.256 385.583 284.379C390.313 285.176 394.857 286.83 398.993 289.259C399.581 289.607 400.25 289.793 400.933 289.799C404.583 289.639 408.213 290.069 411.933 289.319C417.84 288.207 423.538 286.182 428.823 283.319C432.938 281.193 436.643 278.352 439.763 274.929C442.743 271.608 444.389 267.302 444.383 262.839C444.383 261.669 444.383 260.499 444.433 259.329C444.568 257.015 444.118 254.704 443.123 252.609C441.603 248.759 439.843 247.869 436.123 249.029C426.793 251.909 417.443 254.749 408.123 257.699C406.704 258.154 405.184 258.192 403.743 257.809C395.143 255.809 386.483 254.249 377.593 254.349C375.593 254.349 373.593 253.889 371.673 253.999C368.523 254.189 365.393 254.689 362.243 254.999C355.449 255.747 348.864 257.805 342.853 261.059C332.853 266.409 326.853 274.899 323.403 285.579L324.453 286.289Z" fill="#462931"/>
<path d="M329.253 304.289C330.457 303.701 331.696 303.187 332.963 302.749C339.433 300.949 345.903 299.119 352.433 297.509C359.295 295.808 366.396 295.284 373.433 295.959C379.268 296.426 384.961 297.994 390.213 300.579C391.735 301.508 393.35 302.272 395.033 302.859C397.608 303.56 400.249 303.989 402.913 304.139C407.971 304.257 413.02 303.665 417.913 302.379C426.443 300.299 434.513 297.079 441.633 291.789C443.543 290.369 445.403 288.879 447.283 287.429C447.183 289.303 446.589 291.118 445.563 292.689C441.99 299.565 437.192 305.729 431.403 310.879L428.783 313.179H389.783C389.893 312.179 389.383 311.979 388.553 312.089L386.273 311.999L385.593 311.499L384.403 311.429C383.059 310.968 381.69 310.584 380.303 310.279C374.97 309.413 369.636 308.596 364.303 307.829C361.103 307.369 357.873 307.049 354.663 306.629C349.283 305.927 343.868 305.523 338.443 305.419C335.683 305.369 332.923 305.079 330.173 304.849C329.853 304.799 329.563 304.469 329.253 304.289Z" fill="#D58E7D"/>
<path d="M443.063 252.629C444.058 254.724 444.508 257.035 444.373 259.349C444.373 260.519 444.373 261.689 444.323 262.859C443.936 262.895 443.559 263.003 443.213 263.179C441.743 264.359 440.443 265.749 438.883 266.769C433.953 269.959 429.673 274.009 424.593 277.039C419.596 280.096 414.155 282.356 408.463 283.739C406.42 284.237 404.274 284.098 402.313 283.339C399.912 282.244 397.387 281.445 394.793 280.959C390.043 280.319 385.553 278.509 380.683 278.309C377.593 278.189 374.523 277.249 371.363 277.309C368.873 277.309 366.363 277.309 363.883 277.309C358.474 277.214 353.074 277.806 347.813 279.069C342.473 280.299 337.453 282.129 333.213 285.629C332.213 286.479 330.373 286.809 330.413 288.689C330.028 288.752 329.653 288.859 329.293 289.009C328.789 289.343 328.173 289.464 327.581 289.344C326.988 289.224 326.467 288.873 326.133 288.369C325.553 287.699 324.993 287.029 324.433 286.369C324.963 283.639 326.883 281.659 328.533 279.679C330.686 277.326 333.027 275.152 335.533 273.179C341.033 268.52 347.535 265.197 354.533 263.469C357.373 262.719 360.133 261.739 363.123 261.579C366.753 261.389 370.353 260.839 373.983 260.579C375.223 260.499 376.513 261.159 377.753 261.059C382.253 260.699 386.593 261.889 390.963 262.469C394.963 262.999 398.893 264.469 402.883 265.469C404.007 265.773 405.181 265.844 406.333 265.679C407.749 265.31 409.134 264.829 410.473 264.239C414.473 262.799 418.383 261.329 422.343 259.929C429.233 257.419 436.163 255.059 443.063 252.629Z" fill="#94674D"/>
<path d="M443.063 252.629C436.143 255.059 429.213 257.459 422.293 259.909C418.293 261.309 414.383 262.779 410.423 264.219C409.084 264.809 407.699 265.29 406.283 265.659C405.131 265.824 403.957 265.753 402.833 265.449C398.833 264.449 394.953 262.959 390.913 262.449C386.543 261.869 382.203 260.679 377.703 261.039C376.463 261.139 375.173 260.479 373.933 260.559C370.303 260.789 366.703 261.339 363.073 261.559C360.073 261.719 357.323 262.699 354.483 263.449C347.485 265.177 340.983 268.5 335.483 273.159C332.977 275.132 330.636 277.306 328.483 279.659C326.833 281.659 324.913 283.659 324.383 286.349L323.283 285.679C326.703 274.999 332.713 266.509 342.733 261.159C348.744 257.905 355.329 255.847 362.123 255.099C365.273 254.759 368.403 254.259 371.553 254.099C373.553 253.989 375.553 254.469 377.473 254.449C386.363 254.349 395.023 255.859 403.623 257.909C405.064 258.292 406.584 258.254 408.003 257.799C417.323 254.849 426.673 252.009 436.003 249.129C439.803 247.889 441.563 248.779 443.063 252.629Z" fill="#C39B70"/>
<path d="M330.433 288.639C330.433 286.759 332.213 286.429 333.233 285.579C337.473 282.079 342.493 280.249 347.833 279.019C353.094 277.756 358.494 277.164 363.903 277.259C366.393 277.259 368.903 277.259 371.383 277.259C374.543 277.259 377.613 278.179 380.703 278.259C385.573 278.459 390.063 280.259 394.813 280.909C397.407 281.395 399.932 282.194 402.333 283.289C404.294 284.048 406.44 284.187 408.483 283.689C414.175 282.306 419.616 280.046 424.613 276.989C429.693 273.989 433.973 269.909 438.903 266.719C440.463 265.719 441.763 264.309 443.233 263.129C443.579 262.953 443.956 262.845 444.343 262.809C444.349 267.272 442.703 271.578 439.723 274.899C436.603 278.322 432.898 281.163 428.783 283.289C423.498 286.152 417.8 288.177 411.893 289.289C408.213 290.039 404.583 289.609 400.893 289.769C400.21 289.763 399.541 289.576 398.953 289.229C394.825 286.829 390.294 285.199 385.583 284.419C385.109 284.295 384.653 284.114 384.223 283.879C380.623 282.359 376.813 282.139 372.963 282.049C370.313 281.979 367.603 282.569 365.013 281.509C363.013 282.339 360.903 281.889 358.863 282.129C356.823 282.369 355.053 283.129 353.123 283.209C349.273 283.449 345.703 284.799 342.013 285.659C338.693 286.429 335.453 287.499 332.173 288.409C331.6 288.531 331.018 288.608 330.433 288.639V288.639Z" fill="#734341"/>
<path d="M518.103 286.345C515.291 286.675 513.494 285.075 511.763 283.108C508.816 279.694 506.13 276.138 504.71 271.77C504.324 270.536 504.001 269.283 503.742 268.017C503.444 266.767 503.407 265.469 503.633 264.204C503.859 262.939 504.344 261.735 505.057 260.666C516.301 242.731 532.532 233.829 553.627 233.743C564.706 233.833 575.681 235.897 586.036 239.839C593.179 242.399 600.097 245.548 606.719 249.252C607.919 249.949 609.292 250.294 610.68 250.246C620.516 250.049 630.348 250.079 640.181 249.892C641.974 249.845 643.743 250.307 645.283 251.225C652.902 255.699 656.161 262.619 656.087 271.195C656.026 279.224 653.414 287.026 648.629 293.473C645.953 296.962 642.632 299.904 638.845 302.139L636.079 303.891C633.863 304.743 631.654 305.64 629.418 306.455C621.083 309.489 612.43 310.269 603.661 309.825C598.605 309.658 593.597 308.783 588.784 307.225C586.274 306.319 583.865 305.153 581.598 303.746C580.153 302.702 578.823 301.508 577.631 300.184C573.337 296.205 568.329 293.076 562.871 290.961C556.32 288.303 549.365 286.776 542.303 286.445C535.586 286.122 528.863 286.027 522.148 285.903C520.792 285.967 519.441 286.115 518.103 286.345V286.345ZM518.647 267.724C518.989 268.536 519.334 269.338 519.705 270.126C519.881 270.705 520.28 271.189 520.813 271.474C521.347 271.758 521.971 271.819 522.55 271.643C522.937 271.602 523.328 271.606 523.715 271.656C524.285 271.791 524.866 271.88 525.451 271.923C528.854 271.989 532.27 271.87 535.666 272.1C539.448 272.331 543.255 272.057 547.013 272.927C548.897 273.364 550.907 273.202 552.822 273.533C554.737 273.864 556.749 274.923 558.893 274.696C561.072 276.452 563.838 276.661 566.357 277.485C570.021 278.672 573.609 279.971 576.624 282.457C576.969 282.805 577.355 283.109 577.773 283.363C582.078 285.479 585.96 288.362 589.23 291.872C589.694 292.373 590.282 292.742 590.934 292.944C594.478 293.833 597.834 295.283 601.613 295.627C607.591 296.249 613.63 295.938 619.513 294.704C624.064 293.843 628.426 292.179 632.395 289.79C636.199 287.459 639.007 283.803 640.277 279.525C640.611 278.404 640.946 277.282 641.328 276.176C642.119 273.996 642.348 271.653 641.993 269.361C641.637 265.238 640.204 263.882 636.308 263.93C626.544 264.024 616.772 264.074 606.998 264.237C605.508 264.267 604.04 263.87 602.769 263.091C595.099 258.717 587.246 254.747 578.698 252.302C576.782 251.731 574.997 250.718 573.125 250.275C570.052 249.557 566.91 249.141 563.803 248.538C557.078 247.314 550.18 247.404 543.49 248.804C532.378 251.074 524.202 257.495 517.844 266.744L518.647 267.724Z" fill="#462931"/>
<path d="M518.103 286.345C519.425 286.126 520.759 285.987 522.098 285.93C528.813 286.054 535.536 286.149 542.254 286.472C549.316 286.803 556.27 288.33 562.821 290.988C568.279 293.103 573.287 296.232 577.581 300.211C578.774 301.535 580.103 302.729 581.548 303.773C583.815 305.18 586.224 306.346 588.734 307.251C593.547 308.81 598.555 309.685 603.611 309.851C612.38 310.296 621.034 309.516 629.368 306.482C631.605 305.667 633.813 304.77 636.029 303.918C635.397 305.685 634.31 307.255 632.877 308.467C627.489 314.035 621.129 318.571 614.11 321.852L610.942 323.307L573.568 312.162C573.959 311.235 573.528 310.898 572.701 310.766L570.542 310.028L570.033 309.355L568.912 308.948C567.757 308.122 566.555 307.363 565.312 306.674C560.449 304.319 555.571 302.013 550.679 299.754C547.744 298.398 544.74 297.169 541.784 295.849C536.829 293.638 531.756 291.704 526.587 290.054C523.956 289.218 521.394 288.151 518.824 287.145C518.532 287.005 518.348 286.606 518.103 286.345Z" fill="#D58E7D"/>
<path d="M641.93 269.363C642.284 271.655 642.056 273.998 641.265 276.178C640.93 277.299 640.596 278.42 640.214 279.527C639.833 279.45 639.441 279.447 639.059 279.516C637.313 280.227 635.67 281.188 633.883 281.719C628.247 283.367 622.988 286.025 617.254 287.477C611.593 288.978 605.732 289.589 599.882 289.288C597.782 289.182 595.765 288.435 594.103 287.147C592.115 285.412 589.924 283.924 587.577 282.718C583.208 280.747 579.422 277.729 574.812 276.146C571.886 275.148 569.212 273.37 566.167 272.524C563.781 271.813 561.375 271.095 558.999 270.387C553.842 268.75 548.498 267.773 543.096 267.481C537.627 267.133 532.294 267.453 527.23 269.595C526.029 270.124 524.171 269.914 523.672 271.727C523.286 271.677 522.895 271.673 522.508 271.714C521.929 271.89 521.305 271.829 520.771 271.545C520.237 271.26 519.839 270.776 519.662 270.197C519.298 269.39 518.953 268.587 518.605 267.795C519.893 265.33 522.299 263.982 524.446 262.556C527.181 260.916 530.046 259.502 533.011 258.327C539.613 255.434 546.794 254.108 553.994 254.452C556.93 254.545 559.855 254.394 562.766 255.095C566.299 255.951 569.906 256.452 573.459 257.241C574.67 257.518 575.717 258.519 576.934 258.778C581.349 259.719 585.168 262.1 589.19 263.904C592.872 265.555 596.218 268.087 599.756 270.186C600.746 270.798 601.851 271.202 603.002 271.373C604.465 271.424 605.929 271.358 607.381 271.176C611.626 270.939 615.793 270.648 619.988 270.438C627.308 270.001 634.623 269.72 641.93 269.363Z" fill="#94674D"/>
<path d="M641.93 269.363C634.604 269.715 627.277 270.034 619.945 270.404C615.712 270.603 611.545 270.894 607.339 271.142C605.887 271.325 604.422 271.39 602.96 271.339C601.808 271.168 600.704 270.764 599.714 270.152C596.166 268.051 592.874 265.514 589.148 263.871C585.126 262.066 581.307 259.685 576.892 258.744C575.675 258.486 574.628 257.485 573.416 257.207C569.872 256.39 566.265 255.888 562.724 255.062C559.803 254.358 556.888 254.511 553.952 254.418C546.752 254.074 539.571 255.401 532.969 258.294C530.004 259.468 527.139 260.882 524.404 262.522C522.251 263.967 519.839 265.335 518.563 267.761L517.7 266.805C524.029 257.548 532.215 251.129 543.346 248.866C550.036 247.465 556.935 247.375 563.659 248.6C566.775 249.174 569.917 249.59 572.982 250.336C574.93 250.803 576.709 251.834 578.555 252.364C587.103 254.808 594.97 258.73 602.626 263.152C603.896 263.931 605.364 264.329 606.854 264.299C616.629 264.135 626.4 264.085 636.164 263.992C640.16 263.889 641.592 265.245 641.93 269.363Z" fill="#C39B70"/>
<path d="M523.706 271.685C524.243 269.883 526.043 270.076 527.264 269.553C532.327 267.41 537.661 267.091 543.13 267.439C548.532 267.731 553.875 268.708 559.032 270.344C561.418 271.056 563.824 271.773 566.2 272.482C569.229 273.385 571.908 275.144 574.846 276.104C579.456 277.687 583.244 280.695 587.61 282.675C589.957 283.882 592.149 285.369 594.136 287.105C595.799 288.393 597.816 289.14 599.916 289.246C605.765 289.547 611.626 288.936 617.288 287.435C623.013 286.012 628.281 283.325 633.917 281.677C635.697 281.165 637.346 280.185 639.092 279.474C639.474 279.405 639.866 279.408 640.247 279.485C638.977 283.762 636.17 287.419 632.365 289.75C628.396 292.139 624.034 293.803 619.483 294.664C613.6 295.897 607.562 296.209 601.583 295.587C597.842 295.254 594.487 293.805 590.905 292.903C590.252 292.702 589.664 292.332 589.2 291.832C585.93 288.352 582.054 285.495 577.762 283.401C577.343 283.147 576.958 282.843 576.613 282.495C573.598 280.01 570.009 278.71 566.346 277.524C563.826 276.699 561.061 276.49 558.881 274.734C556.728 274.958 554.834 273.924 552.811 273.571C550.787 273.218 548.874 273.44 547.001 272.966C543.243 272.095 539.437 272.369 535.655 272.138C532.253 271.928 528.842 272.027 525.439 271.962C524.855 271.915 524.276 271.822 523.706 271.685V271.685Z" fill="#734341"/>
<circle cx="609.6" cy="403" r="35" fill="#452931"/>
<path d="M597.017 408.217C595.933 412.9 592.483 415.2 587.933 416.7L588.383 409.883C588.342 409.714 588.342 409.536 588.383 409.367C588.817 408.05 589.233 406.717 589.667 405.4C591.533 401.183 593.233 396.867 595.35 392.783C596.76 390.511 598.348 388.354 600.1 386.333C601.867 389.483 602.767 385.117 604.517 386.783C603.167 388.767 603.05 391.633 600.383 393.45C599.517 394.017 599.283 395.767 599.05 397.033C598.233 400.717 597.667 404.467 597.017 408.217Z" fill="#FEEBDC"/>
<circle cx="403" cy="403" r="35" fill="#452931"/>
<path d="M390.417 408.217C389.333 412.9 385.883 415.2 381.333 416.7L381.783 409.883C381.742 409.714 381.742 409.536 381.783 409.367C382.217 408.05 382.633 406.717 383.067 405.4C384.933 401.183 386.633 396.867 388.75 392.783C390.16 390.511 391.748 388.354 393.5 386.333C395.267 389.483 396.167 385.117 397.917 386.783C396.567 388.767 396.45 391.633 393.783 393.45C392.917 394.017 392.683 395.767 392.45 397.033C391.633 400.717 391.067 404.467 390.417 408.217Z" fill="#FEEBDC"/>
<path d="M490.736 539.44L490.746 539.44L490.755 539.441C496.588 539.501 502.456 539.481 508.275 539.461C509.147 539.458 510.018 539.455 510.887 539.452V539.521H516.887C519.67 539.521 522.427 539.51 525.169 539.498C530.587 539.476 535.949 539.454 541.351 539.52C546.924 539.647 552.466 538.639 557.638 536.557L557.652 536.551L557.666 536.546C566.32 533.011 573.533 526.667 578.143 518.535C582.752 510.402 584.491 500.955 583.078 491.714L583.077 491.706C581.544 481.767 576.486 472.711 568.826 466.193C561.173 459.682 551.434 456.139 541.387 456.211C536.737 456.208 532.035 456.158 527.298 456.107C514.757 455.973 501.973 455.836 489.29 456.571L489.289 456.571C484.613 456.843 480.023 457.956 475.742 459.857L475.742 459.857C468.512 463.068 462.344 468.267 457.955 474.847C455.425 478.499 453.546 482.561 452.4 486.854L452.383 486.919L452.367 486.985C451.35 491.169 450.897 495.47 451.019 499.774C451.202 506.799 453.252 513.648 456.959 519.618C460.165 524.865 464.504 529.328 469.659 532.681C475.853 536.984 483.193 539.338 490.736 539.44Z" fill="#E0757B" stroke="#452931" stroke-width="12"/>
<path d="M372.289 654.726C376.293 654.665 380.297 654.585 384.24 654.532C391.316 654.443 398.407 654.534 405.487 654.275C414.241 653.956 422.99 653.426 431.741 652.877C437.995 652.493 444.259 652.109 450.492 651.435C459.586 650.445 468.682 649.346 477.727 647.984C488.938 646.329 500.052 644.075 511.023 641.233C523.838 637.884 536.48 633.989 548.335 627.969C558.421 622.877 568.049 617.032 576.113 608.968C577.142 607.998 577.984 606.933 579.081 605.735C570.819 603.233 562.262 601.834 553.633 601.575C561.982 599.053 570.385 597.072 579.165 597.854C585.69 598.469 591.641 600.527 596.091 605.642C599.792 609.901 601.806 615.366 601.756 621.008C596.55 613.409 589.103 609.165 580.568 606.18C575.634 616.317 568.386 624.535 560.063 631.89L557.07 634.282C556.687 634.327 556.315 634.438 555.97 634.61C551.202 638.186 546.174 641.4 540.927 644.226C531.362 649.613 521.201 653.512 510.825 656.924C503.027 659.489 495.084 661.591 487.037 663.219C480.938 664.447 474.793 665.525 468.643 666.442C463.066 667.276 457.446 667.859 451.836 668.432C445.434 669.072 439.033 669.681 432.608 670.1C426.864 670.479 421.106 670.658 415.35 670.786C409.593 670.915 403.789 670.992 398.021 670.83C390.354 670.601 382.694 670.173 375.042 669.765C367.181 669.35 359.31 668.936 351.464 668.362C344.126 667.833 336.805 667.104 329.511 666.457C328.253 666.349 326.987 666.212 325.73 666.084L316.302 664.863C316.304 660.791 316.543 656.776 316.614 652.396C322.481 652.571 328.241 653.333 334.025 653.626C334.185 653.95 334.269 654.493 334.507 654.56C335.086 654.692 335.681 654.743 336.274 654.713L370.029 655.719C370.618 655.782 371.214 655.769 371.8 655.682C371.984 655.567 372.109 655.051 372.289 654.726Z" fill="#462931"/>
<path d="M325.681 666.042C326.938 666.17 328.205 666.308 329.462 666.415C336.796 667.064 344.117 667.792 351.415 668.32C359.261 668.894 367.132 669.309 374.994 669.723C382.655 670.132 390.315 670.57 397.972 670.788C403.739 670.96 409.525 670.863 415.301 670.745C421.077 670.627 426.815 670.438 432.559 670.058C438.984 669.64 445.385 669.03 451.787 668.39C457.397 667.817 463.017 667.225 468.594 666.4C474.744 665.483 480.889 664.406 486.988 663.177C495.035 661.549 502.978 659.448 510.776 656.883C521.153 653.471 531.313 649.571 540.878 644.184C546.125 641.358 551.154 638.144 555.921 634.568C556.266 634.396 556.639 634.285 557.021 634.241C556.878 634.787 556.636 635.302 556.306 635.76C554.665 637.47 552.895 639.053 551.013 640.494C546.925 643.374 542.538 645.874 538.45 648.774C534.566 651.309 530.485 653.529 526.247 655.413C521.624 657.587 516.891 659.52 512.068 661.203C507.829 662.778 503.544 664.231 499.206 665.462C491.668 667.608 484.081 669.403 476.337 670.783C471.599 671.642 466.875 672.392 462.07 672.829C457.264 673.266 452.356 674.16 447.479 674.635C444.138 674.966 440.76 674.865 437.393 675.035C433.465 675.248 429.534 675.551 425.605 675.794C424.908 675.808 424.211 675.787 423.516 675.732C410.942 675.357 398.365 675.042 385.793 674.607C381.535 674.48 377.286 674.043 373.046 673.627C368.238 673.164 363.421 672.65 358.639 671.997C354.065 671.39 349.517 670.565 344.956 669.858C339.897 669.077 334.837 668.346 329.788 667.555C328.534 667.338 327.294 667.051 326.072 666.694C325.911 666.73 325.824 666.307 325.681 666.042Z" fill="#D28F7E"/>
<svg width="864" height="864" viewBox="0 0 864 864" fill="none">
<path d="M608.64 351H732C765.137 351 792 377.863 792 411V433C792 466.137 765.137 493 732 493H618.624C595.082 493 573.716 479.233 563.987 457.796L554.003 435.796C535.976 396.073 565.018 351 608.64 351Z" fill="#2B1B2E" stroke="#452931" stroke-width="20"/>
<path d="M421.36 351H298C264.863 351 238 377.863 238 411V433C238 466.137 264.863 493 298 493H411.376C434.918 493 456.284 479.233 466.013 457.796L475.997 435.796C494.024 396.073 464.982 351 421.36 351Z" fill="#2B1B2E" stroke="#452931" stroke-width="20"/>
<path d="M465.5 391.914L510.389 379.095C513.069 378.33 515.916 378.382 518.566 379.244L557.5 391.914" stroke="#452931" stroke-width="20"/>
<rect width="16.602" height="77.6639" rx="5" transform="matrix(-0.946623 -0.322343 -0.514354 0.857578 426.663 390.054)" fill="#96A2CD"/>
<rect width="16.602" height="77.6639" rx="5" transform="matrix(-0.946623 -0.322343 -0.514354 0.857578 712.663 387.04)" fill="#96A2CD"/>
<rect width="16.602" height="77.6639" rx="5" transform="matrix(-0.946623 -0.322343 -0.514354 0.857578 372.663 393.068)" fill="#96A2CD"/>
<rect width="16.602" height="77.6639" rx="5" transform="matrix(-0.946623 -0.322343 -0.514354 0.857578 658.663 390.054)" fill="#96A2CD"/>
</svg><svg width="864" height="864" viewBox="0 0 864 864" fill="none">
<path d="M243.29 241.496C232.248 241.788 222.957 233.054 223.766 222.038C225.2 202.513 229.49 183.266 236.527 164.92C245.957 140.337 260.136 117.851 278.256 98.7476C296.376 79.6441 318.081 64.2966 342.132 53.5813C366.183 42.8661 392.109 36.9929 418.43 36.2973C444.751 35.6016 470.951 40.0971 495.534 49.5269C520.118 58.9568 542.603 73.1364 561.707 91.2561C580.811 109.376 596.158 131.081 606.873 155.132C614.87 173.081 620.17 192.074 622.633 211.496C624.023 222.454 615.206 231.667 604.164 231.958L243.29 241.496Z" fill="#271F31"/>
<path d="M444 33C444 41.2843 435.941 48 426 48C416.059 48 408 41.2843 408 33C408 24.7157 416.059 18 426 18C435.941 18 444 24.7157 444 33Z" fill="white"/>
<path d="M430.5 79L452.3 94.8197L477.698 104.75L474.1 130.5L477.698 156.25L452.3 166.18L430.5 182L408.7 166.18L383.302 156.25L386.9 130.5L383.302 104.75L408.7 94.8197L430.5 79Z" fill="#7D9664"/>
<path d="M231 222C231 219.239 233.239 217 236 217H731.119C736.793 217 738.081 224.954 732.697 226.745L708.639 234.745C708.13 234.914 707.598 235 707.062 235H236C233.239 235 231 232.761 231 230V222Z" fill="#271F31"/>
</svg></svg>
